<svg width="1360" height="450" viewBox="0 0 1360 450" fill="none" xmlns="http://www.w3.org/2000/svg">
<path d="M262.594 91.8589C266.954 99.3423 269.251 107.848 269.251 116.509L269.251 263.016C269.251 267.184 263.796 268.753 261.582 265.223L166.714 113.992C153.26 92.5439 159.211 64.2929 180.174 50.0944C202.705 34.8332 233.449 41.8357 247.149 65.3495L262.594 91.8589Z" fill="url(#paint0_linear_1_888)"/>
<path d="M262.594 91.8589C266.954 99.3423 269.251 107.848 269.251 116.509L269.251 263.016C269.251 267.184 263.796 268.753 261.582 265.223L166.714 113.992C153.26 92.5439 159.211 64.2929 180.174 50.0944C202.705 34.8332 233.449 41.8357 247.149 65.3495L262.594 91.8589Z" fill="url(#paint1_radial_1_888)"/>
<path d="M301.806 173.684C301.807 170.861 305.538 169.851 306.964 172.287L352.227 249.652C352.716 250.437 353.202 251.231 353.668 252.038L356.782 257.434L358.61 260.557L358.585 260.559L370.018 280.361C392.923 320.035 379.331 370.767 339.657 393.674L335.059 396.328C295.384 419.234 244.652 405.639 221.746 365.965L211.311 347.894L211.233 348.026C198.374 325.597 185.538 303.15 172.66 280.742C169.291 274.879 163.837 271.567 161.682 270.323C146.235 261.406 126.483 266.699 117.564 282.145L105.865 302.411C96.9468 317.858 102.24 337.61 117.686 346.529C133.133 355.445 152.883 350.153 161.801 334.707L164.318 330.346C165.943 327.532 170.026 327.591 171.569 330.451L193.513 371.127C194.551 373.05 194.372 375.415 192.965 377.087C167.563 407.262 123.439 415.834 88.088 395.425L83.4898 392.768C43.8156 369.862 30.2207 319.13 53.1266 279.455L69.4787 251.136C92.3851 211.462 143.117 197.867 182.792 220.772C218.321 241.284 233.102 278.761 254.153 311.938C254.189 312.001 254.221 312.069 254.258 312.132L266.872 333.977C275.447 348.828 294.437 353.916 309.289 345.342C324.139 336.767 329.229 317.776 320.656 302.925L308.042 281.08C307.219 279.655 306.209 278.001 305.156 276.304C302.976 272.793 301.806 268.75 301.806 264.617V173.684Z" fill="url(#paint2_linear_1_888)"/>
<path d="M301.806 173.684C301.807 170.861 305.538 169.851 306.964 172.287L352.227 249.652C352.716 250.437 353.202 251.231 353.668 252.038L356.782 257.434L358.61 260.557L358.585 260.559L370.018 280.361C392.923 320.035 379.331 370.767 339.657 393.674L335.059 396.328C295.384 419.234 244.652 405.639 221.746 365.965L211.311 347.894L211.233 348.026C198.374 325.597 185.538 303.15 172.66 280.742C169.291 274.879 163.837 271.567 161.682 270.323C146.235 261.406 126.483 266.699 117.564 282.145L105.865 302.411C96.9468 317.858 102.24 337.61 117.686 346.529C133.133 355.445 152.883 350.153 161.801 334.707L164.318 330.346C165.943 327.532 170.026 327.591 171.569 330.451L193.513 371.127C194.551 373.05 194.372 375.415 192.965 377.087C167.563 407.262 123.439 415.834 88.088 395.425L83.4898 392.768C43.8156 369.862 30.2207 319.13 53.1266 279.455L69.4787 251.136C92.3851 211.462 143.117 197.867 182.792 220.772C218.321 241.284 233.102 278.761 254.153 311.938C254.189 312.001 254.221 312.069 254.258 312.132L266.872 333.977C275.447 348.828 294.437 353.916 309.289 345.342C324.139 336.767 329.229 317.776 320.656 302.925L308.042 281.08C307.219 279.655 306.209 278.001 305.156 276.304C302.976 272.793 301.806 268.75 301.806 264.617V173.684Z" fill="url(#paint3_radial_1_888)"/>
<path d="M161.884 149.599C167.041 157.864 169.776 167.41 169.776 177.152C169.776 189.085 157.679 197.369 145.882 195.576C133.167 193.643 120.322 193.895 107.886 196.188C105.552 196.618 103.69 194.098 104.88 192.043L142.769 126.65C143.815 124.844 146.407 124.801 147.512 126.572L161.884 149.599Z" fill="url(#paint4_linear_1_888)"/>
<path d="M161.884 149.599C167.041 157.864 169.776 167.41 169.776 177.152C169.776 189.085 157.679 197.369 145.882 195.576C133.167 193.643 120.322 193.895 107.886 196.188C105.552 196.618 103.69 194.098 104.88 192.043L142.769 126.65C143.815 124.844 146.407 124.801 147.512 126.572L161.884 149.599Z" fill="url(#paint5_radial_1_888)"/>
<path d="M956.873 227.61C952.571 227.843 948.836 229.039 945.665 231.195C942.11 233.612 939.407 236.881 937.558 241.005C935.852 245.129 934.998 249.965 934.998 255.511V256.151H982.14V255.511C982.14 249.965 981.216 245.129 979.367 241.005C977.518 236.881 974.815 233.612 971.26 231.195C968.853 229.558 966.122 228.474 963.063 227.945V208.295C972.579 208.864 980.715 211.233 987.471 215.41C995.293 220.103 1001.2 226.714 1005.18 235.247C1009.16 243.637 1011.15 253.378 1011.15 264.469V268.948C1011.15 270.371 1010.65 271.581 1009.66 272.576C1008.66 273.572 1007.38 274.068 1005.82 274.068H934.998V275.774C935.14 280.751 936.065 285.373 937.772 289.639C939.62 293.763 942.252 297.106 945.665 299.666C949.22 302.225 953.415 303.504 958.249 303.504C962.231 303.504 965.573 302.936 968.275 301.799C970.977 300.519 973.181 299.097 974.888 297.533C976.594 295.969 977.802 294.687 978.513 293.692C979.792 291.985 980.789 290.992 981.5 290.707C982.353 290.281 983.561 290.067 985.125 290.066H1003.47C1004.89 290.066 1006.03 290.492 1006.88 291.345C1007.88 292.198 1008.3 293.266 1008.16 294.546C1008.02 296.821 1006.81 299.593 1004.54 302.864C1002.4 306.134 999.275 309.335 995.151 312.463C991.027 315.591 985.837 318.224 979.58 320.357C973.466 322.347 966.426 323.344 958.462 323.344C942.678 323.344 930.163 318.791 920.919 309.689C911.677 300.588 906.7 287.647 905.989 270.868C905.847 269.446 905.776 267.669 905.776 265.537C905.776 263.262 905.847 261.483 905.989 260.203C906.558 249.538 908.976 240.294 913.242 232.473C917.65 224.652 923.694 218.68 931.373 214.556C938.657 210.509 947.157 208.384 956.873 208.176V227.61Z" fill="url(#paint6_linear_1_888)"/>
<path d="M519.694 171.893C521.827 171.893 523.463 172.464 524.601 173.601C525.738 174.597 526.592 175.805 527.161 177.226L558.027 259.833H529.783L507.965 200.691L486.62 259.052C486.62 259.052 475.136 294.782 466.37 317.156C465.945 318.241 465.443 318.934 464.448 319.929C463.594 320.782 462.172 321.208 460.182 321.208H441.624C440.487 321.208 439.421 320.782 438.426 319.929C437.573 319.076 437.145 318.009 437.145 316.729C437.145 316.16 437.287 315.52 437.572 314.809L488.98 177.226C489.406 175.805 490.189 174.597 491.326 173.601C492.606 172.464 494.313 171.893 496.446 171.893H519.694Z" fill="url(#paint7_linear_1_888)"/>
<path d="M578.569 314.809C578.711 315.52 578.782 316.16 578.782 316.729C578.782 318.009 578.354 319.076 577.501 319.929C576.648 320.782 575.654 321.208 574.517 321.208H555.959C553.968 321.208 552.475 320.782 551.479 319.929C550.626 318.934 550.055 318.009 549.771 317.156L539.747 291.134H482.43L490.091 266.602H532.281L532.27 266.575H560.546L578.569 314.809Z" fill="url(#paint8_linear_1_888)"/>
<path d="M618.927 210.29C620.349 210.29 621.557 210.787 622.552 211.782C623.69 212.778 624.258 214.057 624.258 215.621V223.872C624.258 254.611 624.288 285.351 624.255 316.091C624.255 317.565 624.264 318.456 623.345 319.691C622.425 320.926 621.377 321.208 619.813 321.208H601.255C599.833 321.208 598.625 320.711 597.63 319.716C596.634 318.721 596.138 317.513 596.137 316.091V215.621C596.138 214.057 596.634 212.778 597.63 211.782C598.625 210.787 599.833 210.29 601.255 210.29H618.927Z" fill="url(#paint9_linear_1_888)"/>
<path d="M692.387 210.296H728.768V210.29H750.57C751.992 210.29 753.2 210.787 754.195 211.782C755.191 212.778 755.687 213.988 755.687 215.41V227.78C755.687 229.202 755.191 230.413 754.195 231.408C753.2 232.403 751.991 232.9 750.57 232.9H723.905V279.188C723.905 285.019 724.901 289.569 726.892 292.84C729.025 296.11 732.651 297.746 737.77 297.746H752.489C753.911 297.747 755.119 298.244 756.114 299.239C757.11 300.234 757.609 301.442 757.609 302.864V316.091C757.609 317.513 757.11 318.721 756.114 319.716C755.119 320.711 753.911 321.208 752.489 321.208H735.21C726.678 321.208 719.498 319.715 713.668 316.729C707.837 313.743 703.498 309.335 700.654 303.504C697.81 297.532 696.388 290.137 696.388 281.321V232.9H679.539C678.117 232.9 676.906 232.403 675.911 231.408C674.916 230.413 674.419 229.202 674.419 227.78V215.41C674.419 213.988 674.916 212.778 675.911 211.782C676.906 210.787 678.117 210.29 679.539 210.29H692.387V210.296Z" fill="url(#paint10_linear_1_888)"/>
<path d="M800.848 169.76C802.412 169.76 803.62 170.26 804.473 171.255C805.469 172.25 805.968 173.458 805.968 174.88V223.515L805.974 223.506V257.089C805.973 257.202 805.968 257.316 805.968 257.43V316.091C805.968 317.513 805.469 318.721 804.473 319.716C803.62 320.711 802.412 321.208 800.848 321.208H781.863C780.441 321.208 779.233 320.711 778.238 319.716C777.243 318.721 776.743 317.513 776.743 316.091V174.88C776.743 173.458 777.243 172.25 778.238 171.255C779.233 170.26 780.441 169.76 781.863 169.76H800.848Z" fill="url(#paint11_linear_1_888)"/>
<path d="M840.524 208.157C849.198 208.157 856.735 210.147 863.134 214.129C869.676 217.968 874.723 223.444 878.278 230.554C881.833 237.664 883.612 246.197 883.612 256.151V316.091C883.611 317.512 883.114 318.721 882.119 319.716C881.124 320.711 879.914 321.208 878.492 321.208H859.296C857.874 321.208 856.663 320.711 855.668 319.716C854.673 318.721 854.176 317.512 854.176 316.091V257.43C854.176 249.182 852.112 242.713 847.988 238.02C844.006 233.328 838.177 230.981 830.498 230.981C823.648 230.981 816.799 233.263 812.164 238.488V217.492C814.566 215.577 817.193 213.886 820.047 212.423C825.593 209.579 832.419 208.157 840.524 208.157Z" fill="url(#paint12_linear_1_888)"/>
<path d="M1150.47 171.893C1152.03 171.893 1153.24 172.393 1154.1 173.388C1155.09 174.383 1155.59 175.591 1155.59 177.013V316.091C1155.59 317.512 1155.09 318.721 1154.1 319.716C1153.24 320.711 1152.03 321.208 1150.47 321.208H1130.42C1129 321.208 1127.79 320.711 1126.79 319.716C1125.8 318.721 1125.3 317.513 1125.3 316.091V177.013C1125.3 175.591 1125.8 174.383 1126.79 173.388C1127.79 172.393 1129 171.893 1130.42 171.893H1150.47Z" fill="url(#paint13_linear_1_888)"/>
<path d="M663.327 210.29C664.892 210.29 666.102 210.787 666.955 211.782C667.95 212.778 668.447 213.988 668.447 215.41V230.767C668.447 232.189 667.95 233.397 666.955 234.393C666.102 235.388 664.892 235.887 663.327 235.887H646.691C640.597 235.887 634.178 237.59 630.053 242.346V217.867C631.995 216.331 634.128 215.012 636.451 213.915C641.713 211.498 647.757 210.29 654.582 210.29H663.327Z" fill="url(#paint14_linear_1_888)"/>
<path d="M718.788 169.76C720.209 169.76 721.418 170.26 722.413 171.255C723.408 172.25 723.905 173.458 723.905 174.88V203.548H696.388V174.88C696.388 173.458 696.817 172.25 697.67 171.255C698.665 170.26 699.944 169.76 701.508 169.76H718.788Z" fill="url(#paint15_linear_1_888)"/>
<path d="M1257.94 171.893C1260.07 171.893 1261.71 172.464 1262.84 173.601C1263.98 174.597 1264.83 175.805 1265.4 177.226L1294.87 256.096C1295.55 257.905 1294.21 259.833 1292.28 259.833H1269.95C1268.79 259.833 1267.76 259.111 1267.36 258.023L1246.21 200.691L1224.86 259.052C1224.86 259.052 1213.38 294.782 1204.61 317.156C1204.19 318.241 1203.69 318.934 1202.69 319.929C1201.84 320.782 1200.41 321.208 1198.42 321.208H1179.87C1178.73 321.208 1177.66 320.782 1176.67 319.929C1175.81 319.076 1175.39 318.009 1175.39 316.729C1175.39 316.16 1175.53 315.52 1175.81 314.809L1227.22 177.226C1227.65 175.805 1228.43 174.597 1229.57 173.601C1230.85 172.464 1232.56 171.893 1234.69 171.893H1257.94Z" fill="url(#paint16_linear_1_888)"/>
<path d="M1316.81 314.809C1316.95 315.52 1317.02 316.16 1317.02 316.729C1317.02 318.009 1316.6 319.076 1315.74 319.929C1314.89 320.782 1313.9 321.208 1312.76 321.208H1294.2C1292.21 321.208 1290.72 320.782 1289.72 319.929C1288.87 318.934 1288.3 318.009 1288.01 317.156L1277.99 291.134H1228.2C1224.47 291.134 1221.8 287.512 1222.92 283.948L1227.12 270.488C1227.84 268.176 1229.98 266.602 1232.4 266.602H1270.52L1270.51 266.575H1294.95C1297.26 266.575 1299.32 268.009 1300.13 270.174L1316.81 314.809Z" fill="url(#paint17_linear_1_888)"/>
<path d="M1056.77 210.29C1058.19 210.29 1059.4 210.787 1060.4 211.782C1061.53 212.778 1062.1 214.057 1062.1 215.621V223.872C1062.1 254.611 1062.13 285.351 1062.1 316.091C1062.1 317.565 1062.11 318.456 1061.19 319.691C1060.27 320.926 1059.22 321.208 1057.66 321.208H1039.1C1037.68 321.208 1036.47 320.711 1035.47 319.716C1034.48 318.721 1033.98 317.513 1033.98 316.091V215.621C1033.98 214.057 1034.48 212.778 1035.47 211.782C1036.47 210.787 1037.68 210.29 1039.1 210.29H1056.77Z" fill="url(#paint18_linear_1_888)"/>
<path d="M1101.17 210.29C1102.73 210.29 1103.94 210.787 1104.8 211.782C1105.79 212.778 1106.29 213.988 1106.29 215.41V230.767C1106.29 232.189 1105.79 233.397 1104.8 234.393C1103.94 235.388 1102.73 235.887 1101.17 235.887H1084.53C1080.9 235.887 1077.14 236.494 1073.83 237.995C1071.5 239.053 1067.9 237.492 1067.9 234.931V219.207C1067.9 218.361 1068.28 217.555 1068.96 217.059C1070.61 215.863 1072.39 214.815 1074.29 213.915C1079.56 211.498 1085.6 210.29 1092.43 210.29H1101.17Z" fill="url(#paint19_linear_1_888)"/>
<defs>
<linearGradient id="paint0_linear_1_888" x1="170.882" y1="42" x2="339.928" y2="407.455" gradientUnits="userSpaceOnUse">
<stop offset="0.175921" stop-color="#0727A0"/>
<stop offset="0.752531" stop-color="#FC29F7"/>
</linearGradient>
<radialGradient id="paint1_radial_1_888" cx="0" cy="0" r="1" gradientUnits="userSpaceOnUse" gradientTransform="translate(80.3216 368.101) rotate(-19.3485) scale(279.412 309.946)">
<stop stop-color="#13F6FF"/>
<stop offset="1" stop-color="#13F6FF" stop-opacity="0"/>
</radialGradient>
<linearGradient id="paint2_linear_1_888" x1="170.882" y1="42" x2="339.928" y2="407.455" gradientUnits="userSpaceOnUse">
<stop offset="0.175921" stop-color="#0727A0"/>
<stop offset="0.752531" stop-color="#FC29F7"/>
</linearGradient>
<radialGradient id="paint3_radial_1_888" cx="0" cy="0" r="1" gradientUnits="userSpaceOnUse" gradientTransform="translate(80.3216 368.101) rotate(-19.3485) scale(279.412 309.946)">
<stop stop-color="#13F6FF"/>
<stop offset="1" stop-color="#13F6FF" stop-opacity="0"/>
</radialGradient>
<linearGradient id="paint4_linear_1_888" x1="170.882" y1="42" x2="339.928" y2="407.455" gradientUnits="userSpaceOnUse">
<stop offset="0.175921" stop-color="#0727A0"/>
<stop offset="0.752531" stop-color="#FC29F7"/>
</linearGradient>
<radialGradient id="paint5_radial_1_888" cx="0" cy="0" r="1" gradientUnits="userSpaceOnUse" gradientTransform="translate(80.3216 368.101) rotate(-19.3485) scale(279.412 309.946)">
<stop stop-color="#13F6FF"/>
<stop offset="1" stop-color="#13F6FF" stop-opacity="0"/>
</radialGradient>
<linearGradient id="paint6_linear_1_888" x1="433.729" y1="247.709" x2="1784.12" y2="300.021" gradientUnits="userSpaceOnUse">
<stop stop-color="#2C48B3"/>
<stop offset="1" stop-color="#FC29F7"/>
</linearGradient>
<linearGradient id="paint7_linear_1_888" x1="433.729" y1="247.709" x2="1784.12" y2="300.021" gradientUnits="userSpaceOnUse">
<stop stop-color="#2C48B3"/>
<stop offset="1" stop-color="#FC29F7"/>
</linearGradient>
<linearGradient id="paint8_linear_1_888" x1="433.729" y1="247.709" x2="1784.12" y2="300.021" gradientUnits="userSpaceOnUse">
<stop stop-color="#2C48B3"/>
<stop offset="1" stop-color="#FC29F7"/>
</linearGradient>
<linearGradient id="paint9_linear_1_888" x1="433.729" y1="247.709" x2="1784.12" y2="300.021" gradientUnits="userSpaceOnUse">
<stop stop-color="#2C48B3"/>
<stop offset="1" stop-color="#FC29F7"/>
</linearGradient>
<linearGradient id="paint10_linear_1_888" x1="433.729" y1="247.709" x2="1784.12" y2="300.021" gradientUnits="userSpaceOnUse">
<stop stop-color="#2C48B3"/>
<stop offset="1" stop-color="#FC29F7"/>
</linearGradient>
<linearGradient id="paint11_linear_1_888" x1="433.729" y1="247.709" x2="1784.12" y2="300.021" gradientUnits="userSpaceOnUse">
<stop stop-color="#2C48B3"/>
<stop offset="1" stop-color="#FC29F7"/>
</linearGradient>
<linearGradient id="paint12_linear_1_888" x1="433.729" y1="247.709" x2="1784.12" y2="300.021" gradientUnits="userSpaceOnUse">
<stop stop-color="#2C48B3"/>
<stop offset="1" stop-color="#FC29F7"/>
</linearGradient>
<linearGradient id="paint13_linear_1_888" x1="433.729" y1="247.709" x2="1784.12" y2="300.021" gradientUnits="userSpaceOnUse">
<stop stop-color="#2C48B3"/>
<stop offset="1" stop-color="#FC29F7"/>
</linearGradient>
<linearGradient id="paint14_linear_1_888" x1="433.729" y1="247.709" x2="1784.12" y2="300.021" gradientUnits="userSpaceOnUse">
<stop stop-color="#2C48B3"/>
<stop offset="1" stop-color="#FC29F7"/>
</linearGradient>
<linearGradient id="paint15_linear_1_888" x1="433.729" y1="247.709" x2="1784.12" y2="300.021" gradientUnits="userSpaceOnUse">
<stop stop-color="#2C48B3"/>
<stop offset="1" stop-color="#FC29F7"/>
</linearGradient>
<linearGradient id="paint16_linear_1_888" x1="433.729" y1="247.709" x2="1784.12" y2="300.021" gradientUnits="userSpaceOnUse">
<stop stop-color="#2C48B3"/>
<stop offset="1" stop-color="#FC29F7"/>
</linearGradient>
<linearGradient id="paint17_linear_1_888" x1="433.729" y1="247.709" x2="1784.12" y2="300.021" gradientUnits="userSpaceOnUse">
<stop stop-color="#2C48B3"/>
<stop offset="1" stop-color="#FC29F7"/>
</linearGradient>
<linearGradient id="paint18_linear_1_888" x1="433.729" y1="247.709" x2="1784.12" y2="300.021" gradientUnits="userSpaceOnUse">
<stop stop-color="#2C48B3"/>
<stop offset="1" stop-color="#FC29F7"/>
</linearGradient>
<linearGradient id="paint19_linear_1_888" x1="433.729" y1="247.709" x2="1784.12" y2="300.021" gradientUnits="userSpaceOnUse">
<stop stop-color="#2C48B3"/>
<stop offset="1" stop-color="#FC29F7"/>
</linearGradient>
</defs>
</svg>
