<svg width="964" height="679" viewBox="0 0 964 679" fill="none" xmlns="http://www.w3.org/2000/svg">
<g filter="url(#filter0_d_1_849)">
<path d="M532.961 91.8589C537.321 99.3423 539.618 107.848 539.618 116.509L539.618 263.016C539.618 267.184 534.164 268.753 531.949 265.223L437.082 113.992C423.627 92.5439 429.578 64.2929 450.541 50.0944C473.073 34.8332 503.816 41.8357 517.516 65.3495L532.961 91.8589Z" fill="url(#paint0_linear_1_849)"/>
<path d="M532.961 91.8589C537.321 99.3423 539.618 107.848 539.618 116.509L539.618 263.016C539.618 267.184 534.164 268.753 531.949 265.223L437.082 113.992C423.627 92.5439 429.578 64.2929 450.541 50.0944C473.073 34.8332 503.816 41.8357 517.516 65.3495L532.961 91.8589Z" fill="url(#paint1_radial_1_849)"/>
<path d="M572.173 173.684C572.174 170.861 575.905 169.851 577.331 172.287L622.594 249.652C623.084 250.437 623.569 251.231 624.035 252.038L627.149 257.434L628.977 260.557L628.953 260.559L640.385 280.361C663.29 320.035 649.698 370.767 610.024 393.674L605.426 396.328C565.751 419.234 515.019 405.639 492.113 365.965L481.678 347.894L481.6 348.026C468.742 325.597 455.905 303.15 443.027 280.742C439.658 274.879 434.204 271.567 432.049 270.323C416.603 261.406 396.85 266.699 387.932 282.145L376.232 302.411C367.314 317.858 372.607 337.61 388.053 346.529C403.5 355.445 423.25 350.153 432.168 334.707L434.686 330.346C436.311 327.532 440.393 327.591 441.936 330.451L463.88 371.127C464.918 373.05 464.739 375.415 463.332 377.087C437.93 407.262 393.806 415.834 358.455 395.425L353.857 392.768C314.183 369.862 300.588 319.13 323.494 279.455L339.846 251.136C362.752 211.462 413.484 197.867 453.159 220.772C488.688 241.284 503.469 278.761 524.52 311.938C524.556 312.001 524.589 312.069 524.625 312.132L537.239 333.977C545.814 348.828 564.804 353.916 579.656 345.342C594.507 336.767 599.597 317.776 591.023 302.925L578.41 281.08C577.587 279.655 576.576 278.001 575.523 276.304C573.343 272.793 572.173 268.75 572.173 264.617V173.684Z" fill="url(#paint2_linear_1_849)"/>
<path d="M572.173 173.684C572.174 170.861 575.905 169.851 577.331 172.287L622.594 249.652C623.084 250.437 623.569 251.231 624.035 252.038L627.149 257.434L628.977 260.557L628.953 260.559L640.385 280.361C663.29 320.035 649.698 370.767 610.024 393.674L605.426 396.328C565.751 419.234 515.019 405.639 492.113 365.965L481.678 347.894L481.6 348.026C468.742 325.597 455.905 303.15 443.027 280.742C439.658 274.879 434.204 271.567 432.049 270.323C416.603 261.406 396.85 266.699 387.932 282.145L376.232 302.411C367.314 317.858 372.607 337.61 388.053 346.529C403.5 355.445 423.25 350.153 432.168 334.707L434.686 330.346C436.311 327.532 440.393 327.591 441.936 330.451L463.88 371.127C464.918 373.05 464.739 375.415 463.332 377.087C437.93 407.262 393.806 415.834 358.455 395.425L353.857 392.768C314.183 369.862 300.588 319.13 323.494 279.455L339.846 251.136C362.752 211.462 413.484 197.867 453.159 220.772C488.688 241.284 503.469 278.761 524.52 311.938C524.556 312.001 524.589 312.069 524.625 312.132L537.239 333.977C545.814 348.828 564.804 353.916 579.656 345.342C594.507 336.767 599.597 317.776 591.023 302.925L578.41 281.08C577.587 279.655 576.576 278.001 575.523 276.304C573.343 272.793 572.173 268.75 572.173 264.617V173.684Z" fill="url(#paint3_radial_1_849)"/>
<path d="M432.251 149.599C437.409 157.864 440.143 167.41 440.143 177.152C440.143 189.085 428.046 197.369 416.249 195.576C403.534 193.643 390.69 193.895 378.254 196.188C375.919 196.618 374.057 194.098 375.247 192.043L413.136 126.65C414.182 124.844 416.774 124.801 417.879 126.572L432.251 149.599Z" fill="url(#paint4_linear_1_849)"/>
<path d="M432.251 149.599C437.409 157.864 440.143 167.41 440.143 177.152C440.143 189.085 428.046 197.369 416.249 195.576C403.534 193.643 390.69 193.895 378.254 196.188C375.919 196.618 374.057 194.098 375.247 192.043L413.136 126.65C414.182 124.844 416.774 124.801 417.879 126.572L432.251 149.599Z" fill="url(#paint5_radial_1_849)"/>
</g>
<g filter="url(#filter1_d_1_849)">
<g clip-path="url(#paint6_diamond_1_849_clip_path)" data-figma-skip-parse="true"><g transform="matrix(0.270109 0.311685 -0.289245 0.250663 381.403 100.129)"><rect x="0" y="0" width="995.801" height="666.245" fill="url(#paint6_diamond_1_849)" opacity="0.32" shape-rendering="crispEdges"/><rect x="0" y="0" width="995.801" height="666.245" transform="scale(1 -1)" fill="url(#paint6_diamond_1_849)" opacity="0.32" shape-rendering="crispEdges"/><rect x="0" y="0" width="995.801" height="666.245" transform="scale(-1 1)" fill="url(#paint6_diamond_1_849)" opacity="0.32" shape-rendering="crispEdges"/><rect x="0" y="0" width="995.801" height="666.245" transform="scale(-1)" fill="url(#paint6_diamond_1_849)" opacity="0.32" shape-rendering="crispEdges"/></g></g><path d="M572.173 173.685C572.173 170.862 575.905 169.85 577.331 172.286L622.595 249.651C623.084 250.437 623.569 251.23 624.035 252.038L627.149 257.435L628.976 260.557L628.952 260.56L640.385 280.36C663.29 320.035 649.698 370.767 610.024 393.674L605.426 396.328C566.061 419.055 515.812 405.85 492.655 366.891L492.113 365.965L481.679 347.893L481.599 348.026C471.956 331.205 462.324 314.373 452.679 297.555L443.027 280.742C439.658 274.88 434.203 271.567 432.049 270.323C416.602 261.406 396.85 266.699 387.931 282.144L376.231 302.411C367.313 317.858 372.607 337.61 388.054 346.528C403.5 355.445 423.25 350.153 432.168 334.707L434.685 330.347C436.31 327.532 440.392 327.591 441.935 330.451L463.88 371.127C464.917 373.05 464.739 375.415 463.332 377.087L462.733 377.79C437.442 407.161 394.217 415.543 359.285 395.898L358.455 395.426L353.857 392.768C314.493 370.04 300.802 319.92 322.964 280.387L323.494 279.455L339.846 251.136C362.752 211.462 413.485 197.867 453.159 220.772C488.688 241.284 503.468 278.761 524.519 311.937C524.555 312.001 524.588 312.068 524.625 312.132L537.238 333.977C545.813 348.828 564.804 353.916 579.655 345.342C594.274 336.901 599.435 318.367 591.415 303.624L591.023 302.925L578.409 281.08C577.792 280.011 577.07 278.813 576.303 277.565L575.523 276.305C573.479 273.012 572.323 269.253 572.186 265.391L572.173 264.617V173.685ZM538.511 116.509C538.51 108.044 536.266 99.73 532.005 92.416L516.559 65.9072C503.182 42.9474 473.163 36.1094 451.162 51.0107C430.693 64.8747 424.882 92.4605 438.019 113.403L532.887 264.634C534.511 267.223 538.511 266.072 538.511 263.016V116.509ZM439.036 177.151C439.036 167.617 436.359 158.274 431.311 150.185L416.94 127.158C416.277 126.096 414.721 126.122 414.094 127.205L376.205 192.599C375.519 193.784 376.589 195.368 378.053 195.099C390.608 192.783 403.576 192.529 416.415 194.48C427.707 196.197 439.036 188.25 439.036 177.151ZM440.135 177.708C439.772 189.156 428.237 197.086 416.802 195.652L416.249 195.575C403.534 193.643 390.69 193.894 378.254 196.187L378.036 196.22C375.805 196.461 374.094 194.033 375.247 192.043L413.136 126.649C414.182 124.844 416.775 124.802 417.88 126.572L432.251 149.599C437.409 157.863 440.143 167.41 440.143 177.151L440.135 177.708ZM573.28 264.617C573.28 268.541 574.391 272.382 576.464 275.721C577.518 277.419 578.536 279.085 579.368 280.526L591.981 302.371C600.722 317.512 595.751 336.807 580.923 345.877L580.209 346.301C564.828 355.181 545.161 349.911 536.28 334.531L523.666 312.685C523.635 312.633 523.609 312.582 523.593 312.551C523.579 312.525 523.57 312.51 523.563 312.498C518.293 304.19 513.415 295.613 508.526 287.135C503.625 278.635 498.709 270.228 493.348 262.222C482.63 246.215 470.166 231.87 452.605 221.731C413.46 199.131 363.405 212.545 340.805 251.689L324.453 280.009C301.853 319.154 315.266 369.209 354.411 391.809L359.009 394.467C393.886 414.602 437.423 406.146 462.485 376.374C463.582 375.071 463.741 373.201 462.906 371.653L440.962 330.976C439.83 328.879 436.836 328.836 435.644 330.9L433.127 335.261C423.903 351.236 403.476 356.71 387.5 347.487C371.524 338.263 366.05 317.834 375.273 301.857L386.972 281.591C396.197 265.615 416.626 260.141 432.602 269.364C434.786 270.625 440.464 274.059 443.987 280.19C456.55 302.05 469.074 323.948 481.615 345.826L481.69 345.7L493.072 365.411C515.673 404.556 565.727 417.969 604.872 395.369L609.471 392.715C648.309 370.291 661.814 320.84 639.949 281.834L639.426 280.914L627.146 259.645L627.16 259.643L626.194 257.993L626.19 257.987L623.076 252.592C622.619 251.8 622.141 251.018 621.654 250.236L621.638 250.211L576.375 172.846C575.519 171.384 573.281 171.992 573.28 173.685V264.617ZM539.618 263.016C539.618 267.118 534.333 268.704 532.055 265.385L531.948 265.223L437.082 113.992C423.838 92.8792 429.397 65.1744 449.569 50.7704L450.541 50.0947C473.073 34.8335 503.815 41.8357 517.515 65.3495L532.961 91.8593C537.321 99.3425 539.618 107.848 539.618 116.509V263.016Z" data-figma-gradient-fill="{&#34;type&#34;:&#34;GRADIENT_DIAMOND&#34;,&#34;stops&#34;:[{&#34;color&#34;:{&#34;r&#34;:0.63475406169891357,&#34;g&#34;:0.68889170885086060,&#34;b&#34;:0.95673078298568726,&#34;a&#34;:1.0},&#34;position&#34;:0.0},{&#34;color&#34;:{&#34;r&#34;:0.55192309617996216,&#34;g&#34;:0.58917796611785889,&#34;b&#34;:0.77349174022674561,&#34;a&#34;:1.0},&#34;position&#34;:0.43222352862358093},{&#34;color&#34;:{&#34;r&#34;:0.90384614467620850,&#34;g&#34;:0.90384614467620850,&#34;b&#34;:0.90384614467620850,&#34;a&#34;:1.0},&#34;position&#34;:1.0}],&#34;stopsVar&#34;:[{&#34;color&#34;:{&#34;r&#34;:0.63475406169891357,&#34;g&#34;:0.68889170885086060,&#34;b&#34;:0.95673078298568726,&#34;a&#34;:1.0},&#34;position&#34;:0.0},{&#34;color&#34;:{&#34;r&#34;:0.55192309617996216,&#34;g&#34;:0.58917796611785889,&#34;b&#34;:0.77349174022674561,&#34;a&#34;:1.0},&#34;position&#34;:0.43222352862358093},{&#34;color&#34;:{&#34;r&#34;:0.90384614467620850,&#34;g&#34;:0.90384614467620850,&#34;b&#34;:0.90384614467620850,&#34;a&#34;:1.0},&#34;position&#34;:1.0}],&#34;transform&#34;:{&#34;m00&#34;:540.21734619140625,&#34;m01&#34;:-578.49090576171875,&#34;m02&#34;:400.53973388671875,&#34;m10&#34;:623.36932373046875,&#34;m11&#34;:501.32516479492188,&#34;m12&#34;:-462.218750},&#34;opacity&#34;:0.31999999284744263,&#34;blendMode&#34;:&#34;NORMAL&#34;,&#34;visible&#34;:true}" shape-rendering="crispEdges"/>
</g>
<g filter="url(#filter2_d_1_849)">
<path d="M561.728 540.305C557.427 540.538 553.691 541.734 550.521 543.89C546.966 546.307 544.262 549.576 542.414 553.7C540.707 557.824 539.854 562.66 539.854 568.205V568.846H586.996V568.205C586.996 562.66 586.071 557.824 584.222 553.7C582.374 549.576 579.67 546.307 576.115 543.89C573.709 542.253 570.977 541.169 567.919 540.64V520.99C577.435 521.559 585.57 523.928 592.327 528.105C600.148 532.798 606.051 539.409 610.033 547.942C614.015 556.332 616.005 566.073 616.005 577.164V581.643C616.005 583.065 615.508 584.276 614.513 585.271C613.517 586.267 612.235 586.763 610.671 586.763H539.854V588.469C539.996 593.446 540.921 598.068 542.627 602.334C544.476 606.458 547.108 609.801 550.521 612.361C554.076 614.92 558.27 616.199 563.104 616.199C567.086 616.199 570.429 615.631 573.131 614.494C575.832 613.214 578.037 611.792 579.743 610.228C581.449 608.664 582.657 607.382 583.368 606.386C584.648 604.68 585.644 603.687 586.355 603.402C587.208 602.976 588.417 602.761 589.98 602.761H608.325C609.747 602.761 610.886 603.187 611.739 604.04C612.734 604.893 613.16 605.961 613.018 607.241C612.875 609.516 611.667 612.288 609.393 615.559C607.259 618.829 604.131 622.03 600.007 625.158C595.883 628.286 590.693 630.918 584.436 633.052C578.321 635.042 571.281 636.039 563.318 636.039C547.533 636.039 535.018 631.486 525.775 622.384C516.532 613.283 511.556 600.342 510.845 583.563C510.703 582.141 510.631 580.364 510.631 578.232C510.631 575.957 510.703 574.178 510.845 572.898C511.414 562.233 513.831 552.989 518.098 545.168C522.506 537.347 528.55 531.375 536.228 527.251C543.513 523.204 552.013 521.079 561.728 520.871V540.305Z" fill="url(#paint7_linear_1_849)"/>
<path d="M124.55 484.588C126.683 484.588 128.319 485.159 129.456 486.296C130.594 487.292 131.447 488.5 132.016 489.921L162.882 572.528H134.638L112.82 513.386L91.4753 571.747C91.4753 571.747 79.9916 607.477 71.2251 629.851C70.8 630.936 70.2985 631.629 69.303 632.624C68.4497 633.477 67.0277 633.903 65.0373 633.903H46.4793C45.3422 633.903 44.2764 633.477 43.2814 632.624C42.4281 631.771 42 630.704 42 629.424C42.0002 628.855 42.1429 628.215 42.4271 627.504L93.8352 489.921C94.2619 488.5 95.0442 487.292 96.1817 486.296C97.4615 485.159 99.1686 484.588 101.302 484.588H124.55Z" fill="url(#paint8_linear_1_849)"/>
<path d="M183.424 627.504C183.567 628.215 183.638 628.855 183.638 629.424C183.638 630.704 183.21 631.771 182.357 632.624C181.504 633.477 180.509 633.903 179.372 633.903H160.814C158.824 633.903 157.33 633.477 156.335 632.624C155.482 631.629 154.911 630.704 154.626 629.851L144.603 603.829H87.2852L94.9463 579.297H137.136L137.125 579.27H165.402L183.424 627.504Z" fill="url(#paint9_linear_1_849)"/>
<path d="M223.783 522.985C225.204 522.985 226.413 523.482 227.408 524.477C228.545 525.473 229.113 526.752 229.114 528.316V536.567C229.114 567.306 229.143 598.046 229.111 628.786C229.111 630.26 229.12 631.151 228.2 632.386C227.281 633.621 226.232 633.903 224.668 633.903H206.11C204.689 633.903 203.48 633.406 202.485 632.411C201.49 631.416 200.993 630.207 200.993 628.786V528.316C200.993 526.752 201.49 525.473 202.485 524.477C203.48 523.482 204.689 522.985 206.11 522.985H223.783Z" fill="url(#paint10_linear_1_849)"/>
<path d="M297.243 522.991H333.624V522.985H355.425C356.847 522.985 358.055 523.482 359.051 524.477C360.046 525.473 360.543 526.683 360.543 528.105V540.475C360.543 541.897 360.046 543.108 359.051 544.103C358.055 545.098 356.847 545.595 355.425 545.595H328.76V591.883C328.76 597.713 329.757 602.264 331.748 605.535C333.881 608.805 337.507 610.441 342.626 610.441H357.345C358.767 610.441 359.975 610.939 360.97 611.934C361.965 612.929 362.465 614.137 362.465 615.559V628.786C362.465 630.207 361.965 631.416 360.97 632.411C359.975 633.406 358.767 633.903 357.345 633.903H340.066C331.534 633.903 324.353 632.41 318.523 629.424C312.693 626.437 308.354 622.03 305.51 616.199C302.666 610.227 301.244 602.832 301.244 594.016V545.595H284.394C282.972 545.595 281.762 545.098 280.767 544.103C279.771 543.108 279.274 541.897 279.274 540.475V528.105C279.274 526.683 279.771 525.473 280.767 524.477C281.762 523.482 282.972 522.985 284.394 522.985H297.243V522.991Z" fill="url(#paint11_linear_1_849)"/>
<path d="M405.704 482.455C407.268 482.455 408.476 482.955 409.329 483.95C410.324 484.945 410.824 486.153 410.824 487.575V536.21L410.829 536.201V569.784C410.828 569.897 410.824 570.011 410.824 570.125V628.786C410.823 630.207 410.324 631.416 409.329 632.411C408.476 633.406 407.268 633.903 405.704 633.903H386.719C385.297 633.903 384.089 633.406 383.093 632.411C382.098 631.416 381.599 630.207 381.599 628.786V487.575C381.599 486.153 382.098 484.945 383.093 483.95C384.089 482.955 385.297 482.455 386.719 482.455H405.704Z" fill="url(#paint12_linear_1_849)"/>
<path d="M445.38 520.852C454.054 520.852 461.591 522.842 467.99 526.824C474.531 530.663 479.578 536.139 483.133 543.249C486.689 550.359 488.467 558.892 488.467 568.846V628.786C488.467 630.207 487.97 631.416 486.975 632.411C485.979 633.406 484.769 633.903 483.347 633.903H464.151C462.729 633.903 461.519 633.406 460.523 632.411C459.528 631.416 459.031 630.207 459.031 628.786V570.125C459.031 561.877 456.967 555.408 452.843 550.715C448.862 546.023 443.032 543.676 435.353 543.676C428.503 543.676 421.654 545.958 417.02 551.183V530.187C419.421 528.272 422.049 526.581 424.902 525.118C430.448 522.274 437.274 520.852 445.38 520.852Z" fill="url(#paint13_linear_1_849)"/>
<path d="M755.326 484.588C756.89 484.588 758.098 485.088 758.951 486.083C759.946 487.078 760.443 488.286 760.443 489.708V628.786C760.443 630.207 759.946 631.416 758.951 632.411C758.098 633.406 756.89 633.903 755.326 633.903H735.273C733.851 633.903 732.643 633.406 731.648 632.411C730.653 631.416 730.153 630.207 730.153 628.786V489.708C730.153 488.286 730.653 487.078 731.648 486.083C732.643 485.087 733.851 484.588 735.273 484.588H755.326Z" fill="url(#paint14_linear_1_849)"/>
<path d="M268.183 522.985C269.747 522.985 270.957 523.482 271.811 524.477C272.806 525.473 273.303 526.683 273.303 528.105V543.462C273.303 544.884 272.805 546.092 271.811 547.087C270.957 548.083 269.747 548.582 268.183 548.582H251.547C245.453 548.582 239.034 550.285 234.908 555.041V530.562C236.851 529.026 238.983 527.707 241.307 526.61C246.568 524.193 252.612 522.985 259.438 522.985H268.183Z" fill="url(#paint15_linear_1_849)"/>
<path d="M323.643 482.455C325.065 482.455 326.273 482.955 327.268 483.95C328.263 484.945 328.76 486.153 328.76 487.575V516.243H301.244V487.575C301.244 486.153 301.672 484.945 302.525 483.95C303.521 482.954 304.8 482.455 306.364 482.455H323.643Z" fill="url(#paint16_linear_1_849)"/>
<path d="M862.792 484.588C864.925 484.588 866.561 485.159 867.698 486.296C868.836 487.292 869.689 488.5 870.258 489.921L899.728 568.791C900.404 570.6 899.066 572.528 897.135 572.528H874.81C873.65 572.528 872.614 571.806 872.213 570.718L851.062 513.386L829.717 571.747C829.717 571.747 818.234 607.477 809.467 629.851C809.042 630.936 808.541 631.629 807.545 632.624C806.692 633.477 805.27 633.903 803.279 633.903H784.721C783.584 633.903 782.518 633.477 781.523 632.624C780.67 631.771 780.242 630.704 780.242 629.424C780.242 628.855 780.385 628.215 780.669 627.504L832.077 489.921C832.504 488.5 833.286 487.292 834.424 486.296C835.704 485.159 837.411 484.588 839.544 484.588H862.792Z" fill="url(#paint17_linear_1_849)"/>
<path d="M921.666 627.504C921.809 628.215 921.88 628.855 921.88 629.424C921.88 630.704 921.452 631.771 920.599 632.624C919.746 633.477 918.751 633.903 917.614 633.903H899.056C897.066 633.903 895.572 633.477 894.577 632.624C893.724 631.629 893.153 630.704 892.868 629.851L882.845 603.829H833.056C829.322 603.829 826.658 600.207 827.772 596.643L831.975 583.183C832.697 580.871 834.837 579.297 837.259 579.297H875.378L875.367 579.27H899.802C902.112 579.27 904.18 580.704 904.988 582.868L921.666 627.504Z" fill="url(#paint18_linear_1_849)"/>
<path d="M661.626 522.985C663.047 522.985 664.256 523.482 665.251 524.477C666.388 525.473 666.956 526.752 666.957 528.316V536.567C666.957 567.306 666.986 598.046 666.954 628.786C666.954 630.26 666.962 631.151 666.043 632.386C665.124 633.621 664.075 633.903 662.511 633.903H643.953C642.532 633.903 641.323 633.406 640.328 632.411C639.333 631.416 638.836 630.207 638.836 628.786V528.316C638.836 526.752 639.333 525.473 640.328 524.477C641.323 523.482 642.532 522.985 643.953 522.985H661.626Z" fill="url(#paint19_linear_1_849)"/>
<path d="M706.026 522.985C707.59 522.985 708.8 523.482 709.654 524.477C710.649 525.473 711.146 526.683 711.146 528.105V543.462C711.146 544.884 710.648 546.092 709.654 547.087C708.8 548.083 707.59 548.582 706.026 548.582H689.39C685.752 548.582 681.998 549.189 678.685 550.69C676.351 551.748 672.751 550.187 672.751 547.625V531.902C672.751 531.056 673.134 530.25 673.819 529.753C675.468 528.558 677.245 527.51 679.15 526.61C684.411 524.193 690.455 522.985 697.281 522.985H706.026Z" fill="url(#paint20_linear_1_849)"/>
</g>
<defs>
<filter id="filter0_d_1_849" x="290.222" y="19.8548" width="383.435" height="409.745" filterUnits="userSpaceOnUse" color-interpolation-filters="sRGB">
<feFlood flood-opacity="0" result="BackgroundImageFix"/>
<feColorMatrix in="SourceAlpha" type="matrix" values="0 0 0 0 0 0 0 0 0 0 0 0 0 0 0 0 0 0 127 0" result="hardAlpha"/>
<feOffset/>
<feGaussianBlur stdDeviation="11.0726"/>
<feComposite in2="hardAlpha" operator="out"/>
<feColorMatrix type="matrix" values="0 0 0 0 0.735577 0 0 0 0 0 0 0 0 0 0.718146 0 0 0 0.27 0"/>
<feBlend mode="normal" in2="BackgroundImageFix" result="effect1_dropShadow_1_849"/>
<feBlend mode="normal" in="SourceGraphic" in2="effect1_dropShadow_1_849" result="shape"/>
</filter>
<filter id="filter1_d_1_849" x="290.222" y="19.855" width="383.435" height="409.745" filterUnits="userSpaceOnUse" color-interpolation-filters="sRGB">
<feFlood flood-opacity="0" result="BackgroundImageFix"/>
<feColorMatrix in="SourceAlpha" type="matrix" values="0 0 0 0 0 0 0 0 0 0 0 0 0 0 0 0 0 0 127 0" result="hardAlpha"/>
<feOffset/>
<feGaussianBlur stdDeviation="11.0726"/>
<feComposite in2="hardAlpha" operator="out"/>
<feColorMatrix type="matrix" values="0 0 0 0 0.735577 0 0 0 0 0 0 0 0 0 0.718146 0 0 0 0.27 0"/>
<feBlend mode="normal" in2="BackgroundImageFix" result="effect1_dropShadow_1_849"/>
<feBlend mode="normal" in="SourceGraphic" in2="effect1_dropShadow_1_849" result="shape"/>
</filter>
<clipPath id="paint6_diamond_1_849_clip_path"><path d="M572.173 173.685C572.173 170.862 575.905 169.85 577.331 172.286L622.595 249.651C623.084 250.437 623.569 251.23 624.035 252.038L627.149 257.435L628.976 260.557L628.952 260.56L640.385 280.36C663.29 320.035 649.698 370.767 610.024 393.674L605.426 396.328C566.061 419.055 515.812 405.85 492.655 366.891L492.113 365.965L481.679 347.893L481.599 348.026C471.956 331.205 462.324 314.373 452.679 297.555L443.027 280.742C439.658 274.88 434.203 271.567 432.049 270.323C416.602 261.406 396.85 266.699 387.931 282.144L376.231 302.411C367.313 317.858 372.607 337.61 388.054 346.528C403.5 355.445 423.25 350.153 432.168 334.707L434.685 330.347C436.31 327.532 440.392 327.591 441.935 330.451L463.88 371.127C464.917 373.05 464.739 375.415 463.332 377.087L462.733 377.79C437.442 407.161 394.217 415.543 359.285 395.898L358.455 395.426L353.857 392.768C314.493 370.04 300.802 319.92 322.964 280.387L323.494 279.455L339.846 251.136C362.752 211.462 413.485 197.867 453.159 220.772C488.688 241.284 503.468 278.761 524.519 311.937C524.555 312.001 524.588 312.068 524.625 312.132L537.238 333.977C545.813 348.828 564.804 353.916 579.655 345.342C594.274 336.901 599.435 318.367 591.415 303.624L591.023 302.925L578.409 281.08C577.792 280.011 577.07 278.813 576.303 277.565L575.523 276.305C573.479 273.012 572.323 269.253 572.186 265.391L572.173 264.617V173.685ZM538.511 116.509C538.51 108.044 536.266 99.73 532.005 92.416L516.559 65.9072C503.182 42.9474 473.163 36.1094 451.162 51.0107C430.693 64.8747 424.882 92.4605 438.019 113.403L532.887 264.634C534.511 267.223 538.511 266.072 538.511 263.016V116.509ZM439.036 177.151C439.036 167.617 436.359 158.274 431.311 150.185L416.94 127.158C416.277 126.096 414.721 126.122 414.094 127.205L376.205 192.599C375.519 193.784 376.589 195.368 378.053 195.099C390.608 192.783 403.576 192.529 416.415 194.48C427.707 196.197 439.036 188.25 439.036 177.151ZM440.135 177.708C439.772 189.156 428.237 197.086 416.802 195.652L416.249 195.575C403.534 193.643 390.69 193.894 378.254 196.187L378.036 196.22C375.805 196.461 374.094 194.033 375.247 192.043L413.136 126.649C414.182 124.844 416.775 124.802 417.88 126.572L432.251 149.599C437.409 157.863 440.143 167.41 440.143 177.151L440.135 177.708ZM573.28 264.617C573.28 268.541 574.391 272.382 576.464 275.721C577.518 277.419 578.536 279.085 579.368 280.526L591.981 302.371C600.722 317.512 595.751 336.807 580.923 345.877L580.209 346.301C564.828 355.181 545.161 349.911 536.28 334.531L523.666 312.685C523.635 312.633 523.609 312.582 523.593 312.551C523.579 312.525 523.57 312.51 523.563 312.498C518.293 304.19 513.415 295.613 508.526 287.135C503.625 278.635 498.709 270.228 493.348 262.222C482.63 246.215 470.166 231.87 452.605 221.731C413.46 199.131 363.405 212.545 340.805 251.689L324.453 280.009C301.853 319.154 315.266 369.209 354.411 391.809L359.009 394.467C393.886 414.602 437.423 406.146 462.485 376.374C463.582 375.071 463.741 373.201 462.906 371.653L440.962 330.976C439.83 328.879 436.836 328.836 435.644 330.9L433.127 335.261C423.903 351.236 403.476 356.71 387.5 347.487C371.524 338.263 366.05 317.834 375.273 301.857L386.972 281.591C396.197 265.615 416.626 260.141 432.602 269.364C434.786 270.625 440.464 274.059 443.987 280.19C456.55 302.05 469.074 323.948 481.615 345.826L481.69 345.7L493.072 365.411C515.673 404.556 565.727 417.969 604.872 395.369L609.471 392.715C648.309 370.291 661.814 320.84 639.949 281.834L639.426 280.914L627.146 259.645L627.16 259.643L626.194 257.993L626.19 257.987L623.076 252.592C622.619 251.8 622.141 251.018 621.654 250.236L621.638 250.211L576.375 172.846C575.519 171.384 573.281 171.992 573.28 173.685V264.617ZM539.618 263.016C539.618 267.118 534.333 268.704 532.055 265.385L531.948 265.223L437.082 113.992C423.838 92.8792 429.397 65.1744 449.569 50.7704L450.541 50.0947C473.073 34.8335 503.815 41.8357 517.515 65.3495L532.961 91.8593C537.321 99.3425 539.618 107.848 539.618 116.509V263.016Z" shape-rendering="crispEdges"/></clipPath><filter id="filter2_d_1_849" x="19.8548" y="460.31" width="924.17" height="197.874" filterUnits="userSpaceOnUse" color-interpolation-filters="sRGB">
<feFlood flood-opacity="0" result="BackgroundImageFix"/>
<feColorMatrix in="SourceAlpha" type="matrix" values="0 0 0 0 0 0 0 0 0 0 0 0 0 0 0 0 0 0 127 0" result="hardAlpha"/>
<feOffset/>
<feGaussianBlur stdDeviation="11.0726"/>
<feComposite in2="hardAlpha" operator="out"/>
<feColorMatrix type="matrix" values="0 0 0 0 0.735577 0 0 0 0 0 0 0 0 0 0.718146 0 0 0 0.27 0"/>
<feBlend mode="normal" in2="BackgroundImageFix" result="effect1_dropShadow_1_849"/>
<feBlend mode="normal" in="SourceGraphic" in2="effect1_dropShadow_1_849" result="shape"/>
</filter>
<linearGradient id="paint0_linear_1_849" x1="441.249" y1="42" x2="610.295" y2="407.455" gradientUnits="userSpaceOnUse">
<stop offset="0.175921" stop-color="#0727A0"/>
<stop offset="0.752531" stop-color="#FC29F7"/>
</linearGradient>
<radialGradient id="paint1_radial_1_849" cx="0" cy="0" r="1" gradientUnits="userSpaceOnUse" gradientTransform="translate(350.689 368.101) rotate(-19.3485) scale(279.412 309.946)">
<stop stop-color="#13F6FF"/>
<stop offset="1" stop-color="#13F6FF" stop-opacity="0"/>
</radialGradient>
<linearGradient id="paint2_linear_1_849" x1="441.249" y1="42" x2="610.295" y2="407.455" gradientUnits="userSpaceOnUse">
<stop offset="0.175921" stop-color="#0727A0"/>
<stop offset="0.752531" stop-color="#FC29F7"/>
</linearGradient>
<radialGradient id="paint3_radial_1_849" cx="0" cy="0" r="1" gradientUnits="userSpaceOnUse" gradientTransform="translate(350.689 368.101) rotate(-19.3485) scale(279.412 309.946)">
<stop stop-color="#13F6FF"/>
<stop offset="1" stop-color="#13F6FF" stop-opacity="0"/>
</radialGradient>
<linearGradient id="paint4_linear_1_849" x1="441.249" y1="42" x2="610.295" y2="407.455" gradientUnits="userSpaceOnUse">
<stop offset="0.175921" stop-color="#0727A0"/>
<stop offset="0.752531" stop-color="#FC29F7"/>
</linearGradient>
<radialGradient id="paint5_radial_1_849" cx="0" cy="0" r="1" gradientUnits="userSpaceOnUse" gradientTransform="translate(350.689 368.101) rotate(-19.3485) scale(279.412 309.946)">
<stop stop-color="#13F6FF"/>
<stop offset="1" stop-color="#13F6FF" stop-opacity="0"/>
</radialGradient>
<linearGradient id="paint6_diamond_1_849" x1="0" y1="0" x2="500" y2="500" gradientUnits="userSpaceOnUse">
<stop stop-color="#A2B0F4"/>
<stop offset="0.432224" stop-color="#8D96C5"/>
<stop offset="1" stop-color="#E6E6E6"/>
</linearGradient>
<linearGradient id="paint7_linear_1_849" x1="38.5845" y1="560.404" x2="1388.97" y2="612.716" gradientUnits="userSpaceOnUse">
<stop stop-color="#2C48B3"/>
<stop offset="1" stop-color="#FC29F7"/>
</linearGradient>
<linearGradient id="paint8_linear_1_849" x1="38.5845" y1="560.404" x2="1388.97" y2="612.716" gradientUnits="userSpaceOnUse">
<stop stop-color="#2C48B3"/>
<stop offset="1" stop-color="#FC29F7"/>
</linearGradient>
<linearGradient id="paint9_linear_1_849" x1="38.5845" y1="560.404" x2="1388.97" y2="612.716" gradientUnits="userSpaceOnUse">
<stop stop-color="#2C48B3"/>
<stop offset="1" stop-color="#FC29F7"/>
</linearGradient>
<linearGradient id="paint10_linear_1_849" x1="38.5845" y1="560.404" x2="1388.97" y2="612.716" gradientUnits="userSpaceOnUse">
<stop stop-color="#2C48B3"/>
<stop offset="1" stop-color="#FC29F7"/>
</linearGradient>
<linearGradient id="paint11_linear_1_849" x1="38.5845" y1="560.404" x2="1388.97" y2="612.716" gradientUnits="userSpaceOnUse">
<stop stop-color="#2C48B3"/>
<stop offset="1" stop-color="#FC29F7"/>
</linearGradient>
<linearGradient id="paint12_linear_1_849" x1="38.5845" y1="560.404" x2="1388.97" y2="612.716" gradientUnits="userSpaceOnUse">
<stop stop-color="#2C48B3"/>
<stop offset="1" stop-color="#FC29F7"/>
</linearGradient>
<linearGradient id="paint13_linear_1_849" x1="38.5845" y1="560.404" x2="1388.97" y2="612.716" gradientUnits="userSpaceOnUse">
<stop stop-color="#2C48B3"/>
<stop offset="1" stop-color="#FC29F7"/>
</linearGradient>
<linearGradient id="paint14_linear_1_849" x1="38.5845" y1="560.404" x2="1388.97" y2="612.716" gradientUnits="userSpaceOnUse">
<stop stop-color="#2C48B3"/>
<stop offset="1" stop-color="#FC29F7"/>
</linearGradient>
<linearGradient id="paint15_linear_1_849" x1="38.5845" y1="560.404" x2="1388.97" y2="612.716" gradientUnits="userSpaceOnUse">
<stop stop-color="#2C48B3"/>
<stop offset="1" stop-color="#FC29F7"/>
</linearGradient>
<linearGradient id="paint16_linear_1_849" x1="38.5845" y1="560.404" x2="1388.97" y2="612.716" gradientUnits="userSpaceOnUse">
<stop stop-color="#2C48B3"/>
<stop offset="1" stop-color="#FC29F7"/>
</linearGradient>
<linearGradient id="paint17_linear_1_849" x1="38.5845" y1="560.404" x2="1388.97" y2="612.716" gradientUnits="userSpaceOnUse">
<stop stop-color="#2C48B3"/>
<stop offset="1" stop-color="#FC29F7"/>
</linearGradient>
<linearGradient id="paint18_linear_1_849" x1="38.5845" y1="560.404" x2="1388.97" y2="612.716" gradientUnits="userSpaceOnUse">
<stop stop-color="#2C48B3"/>
<stop offset="1" stop-color="#FC29F7"/>
</linearGradient>
<linearGradient id="paint19_linear_1_849" x1="38.5845" y1="560.404" x2="1388.97" y2="612.716" gradientUnits="userSpaceOnUse">
<stop stop-color="#2C48B3"/>
<stop offset="1" stop-color="#FC29F7"/>
</linearGradient>
<linearGradient id="paint20_linear_1_849" x1="38.5845" y1="560.404" x2="1388.97" y2="612.716" gradientUnits="userSpaceOnUse">
<stop stop-color="#2C48B3"/>
<stop offset="1" stop-color="#FC29F7"/>
</linearGradient>
</defs>
</svg>
